<svg width="120" height="27" viewBox="0 0 120 27" fill="none" xmlns="http://www.w3.org/2000/svg">
<path d="M0.728 12.746C0.728 11.238 1.03133 9.92067 1.638 8.794C2.262 7.66733 3.12 6.80067 4.212 6.194C5.32133 5.58733 6.58667 5.284 8.008 5.284C9.828 5.284 11.3447 5.76067 12.558 6.714C13.7887 7.66733 14.5947 9.01067 14.976 10.744H10.244C9.84533 9.63467 9.074 9.08 7.93 9.08C7.11533 9.08 6.46533 9.40067 5.98 10.042C5.49467 10.666 5.252 11.5673 5.252 12.746C5.252 13.9247 5.49467 14.8347 5.98 15.476C6.46533 16.1 7.11533 16.412 7.93 16.412C9.074 16.412 9.84533 15.8573 10.244 14.748H14.976C14.5947 16.4467 13.7887 17.7813 12.558 18.752C11.3273 19.7227 9.81067 20.208 8.008 20.208C6.58667 20.208 5.32133 19.9047 4.212 19.298C3.12 18.6913 2.262 17.8247 1.638 16.698C1.03133 15.5713 0.728 14.254 0.728 12.746ZM26.2722 5.336C27.9362 5.336 29.2709 5.89067 30.2762 7C31.2815 8.092 31.7842 9.6 31.7842 11.524V20H27.3642V12.122C27.3642 11.1513 27.1129 10.3973 26.6102 9.86C26.1075 9.32267 25.4315 9.054 24.5822 9.054C23.7329 9.054 23.0569 9.32267 22.5542 9.86C22.0515 10.3973 21.8002 11.1513 21.8002 12.122V20H17.3542V0.76H21.8002V7.442C22.2509 6.80067 22.8662 6.28933 23.6462 5.908C24.4262 5.52667 25.3015 5.336 26.2722 5.336ZM33.9897 12.72C33.9897 11.2293 34.2671 9.92067 34.8217 8.794C35.3937 7.66733 36.1651 6.80067 37.1357 6.194C38.1064 5.58733 39.1897 5.284 40.3857 5.284C41.4084 5.284 42.3011 5.492 43.0637 5.908C43.8437 6.324 44.4417 6.87 44.8577 7.546V5.492H49.3037V20H44.8577V17.946C44.4244 18.622 43.8177 19.168 43.0377 19.584C42.2751 20 41.3824 20.208 40.3597 20.208C39.1811 20.208 38.1064 19.9047 37.1357 19.298C36.1651 18.674 35.3937 17.7987 34.8217 16.672C34.2671 15.528 33.9897 14.2107 33.9897 12.72ZM44.8577 12.746C44.8577 11.6367 44.5457 10.7613 43.9217 10.12C43.3151 9.47867 42.5697 9.158 41.6857 9.158C40.8017 9.158 40.0477 9.47867 39.4237 10.12C38.8171 10.744 38.5137 11.6107 38.5137 12.72C38.5137 13.8293 38.8171 14.7133 39.4237 15.372C40.0477 16.0133 40.8017 16.334 41.6857 16.334C42.5697 16.334 43.3151 16.0133 43.9217 15.372C44.5457 14.7307 44.8577 13.8553 44.8577 12.746ZM60.6062 16.23V20H58.3442C56.7322 20 55.4755 19.61 54.5742 18.83C53.6729 18.0327 53.2222 16.7413 53.2222 14.956V9.184H51.4542V5.492H53.2222V1.956H57.6682V5.492H60.5802V9.184H57.6682V15.008C57.6682 15.4413 57.7722 15.7533 57.9802 15.944C58.1882 16.1347 58.5349 16.23 59.0202 16.23H60.6062ZM62.5887 12.824C62.5887 11.368 62.8834 10.094 63.4727 9.002C64.062 7.89267 64.868 7.03467 65.8907 6.428C66.9307 5.82133 68.0834 5.518 69.3487 5.518C70.5967 5.518 71.68 5.78667 72.5987 6.324C73.5174 6.86133 74.202 7.53733 74.6527 8.352V5.752H77.0447V20H74.6527V17.348C74.1847 18.18 73.4827 18.8733 72.5467 19.428C71.628 19.9653 70.5534 20.234 69.3227 20.234C68.0574 20.234 66.9134 19.922 65.8907 19.298C64.868 18.674 64.062 17.7987 63.4727 16.672C62.8834 15.5453 62.5887 14.2627 62.5887 12.824ZM74.6527 12.85C74.6527 11.7753 74.436 10.8393 74.0027 10.042C73.5694 9.24467 72.98 8.638 72.2347 8.222C71.5067 7.78867 70.7007 7.572 69.8167 7.572C68.9327 7.572 68.1267 7.78 67.3987 8.196C66.6707 8.612 66.09 9.21867 65.6567 10.016C65.2234 10.8133 65.0067 11.7493 65.0067 12.824C65.0067 13.916 65.2234 14.8693 65.6567 15.684C66.09 16.4813 66.6707 17.0967 67.3987 17.53C68.1267 17.946 68.9327 18.154 69.8167 18.154C70.7007 18.154 71.5067 17.946 72.2347 17.53C72.98 17.0967 73.5694 16.4813 74.0027 15.684C74.436 14.8693 74.6527 13.9247 74.6527 12.85ZM83.409 8.378C83.877 7.56333 84.5703 6.88733 85.489 6.35C86.425 5.79533 87.5083 5.518 88.739 5.518C90.0043 5.518 91.1483 5.82133 92.171 6.428C93.211 7.03467 94.0257 7.89267 94.615 9.002C95.2043 10.094 95.499 11.368 95.499 12.824C95.499 14.2627 95.2043 15.5453 94.615 16.672C94.0257 17.7987 93.211 18.674 92.171 19.298C91.1483 19.922 90.0043 20.234 88.739 20.234C87.5257 20.234 86.451 19.9653 85.515 19.428C84.5963 18.8733 83.8943 18.1887 83.409 17.374V26.76H81.043V5.752H83.409V8.378ZM93.081 12.824C93.081 11.7493 92.8643 10.8133 92.431 10.016C91.9977 9.21867 91.4083 8.612 90.663 8.196C89.935 7.78 89.129 7.572 88.245 7.572C87.3783 7.572 86.5723 7.78867 85.827 8.222C85.099 8.638 84.5097 9.25333 84.059 10.068C83.6257 10.8653 83.409 11.7927 83.409 12.85C83.409 13.9247 83.6257 14.8693 84.059 15.684C84.5097 16.4813 85.099 17.0967 85.827 17.53C86.5723 17.946 87.3783 18.154 88.245 18.154C89.129 18.154 89.935 17.946 90.663 17.53C91.4083 17.0967 91.9977 16.4813 92.431 15.684C92.8643 14.8693 93.081 13.916 93.081 12.824ZM100.979 8.378C101.447 7.56333 102.141 6.88733 103.059 6.35C103.995 5.79533 105.079 5.518 106.309 5.518C107.575 5.518 108.719 5.82133 109.741 6.428C110.781 7.03467 111.596 7.89267 112.185 9.002C112.775 10.094 113.069 11.368 113.069 12.824C113.069 14.2627 112.775 15.5453 112.185 16.672C111.596 17.7987 110.781 18.674 109.741 19.298C108.719 19.922 107.575 20.234 106.309 20.234C105.096 20.234 104.021 19.9653 103.085 19.428C102.167 18.8733 101.465 18.1887 100.979 17.374V26.76H98.6133V5.752H100.979V8.378ZM110.651 12.824C110.651 11.7493 110.435 10.8133 110.001 10.016C109.568 9.21867 108.979 8.612 108.233 8.196C107.505 7.78 106.699 7.572 105.815 7.572C104.949 7.572 104.143 7.78867 103.397 8.222C102.669 8.638 102.08 9.25333 101.629 10.068C101.196 10.8653 100.979 11.7927 100.979 12.85C100.979 13.9247 101.196 14.8693 101.629 15.684C102.08 16.4813 102.669 17.0967 103.397 17.53C104.143 17.946 104.949 18.154 105.815 18.154C106.699 18.154 107.505 17.946 108.233 17.53C108.979 17.0967 109.568 16.4813 110.001 15.684C110.435 14.8693 110.651 13.916 110.651 12.824ZM117.328 20.182C116.79 20.182 116.34 20 115.976 19.636C115.612 19.272 115.43 18.8213 115.43 18.284C115.43 17.7467 115.612 17.296 115.976 16.932C116.34 16.568 116.79 16.386 117.328 16.386C117.848 16.386 118.29 16.568 118.654 16.932C119.018 17.296 119.2 17.7467 119.2 18.284C119.2 18.8213 119.018 19.272 118.654 19.636C118.29 20 117.848 20.182 117.328 20.182Z" fill="white"/>
</svg>
